PathFileType	4	(X/Y/Z)	C:/Users/beibeiliu/ov580/test_trc\sequence.9_training_dense_right.trc
DataRate	CameraRate	NumFrames	NumMarkers	Units	OrigDataRate	OrigDataStartFrame	OrigNumFrames
120	120	23	19	mm	120	52	77
Frame#	Time	ThumbCMC			ThumbMCP			ThumbIP			ThumbTip			IndexMCP			IndexPIP			IndexTip			MiddleMCP			MiddlePIP			MiddleTip			RingMCP			RingPIP			RingTip			PinkyMCP			PinkyPIP			PinkyTip			BackHand1			BackHand2			BackHand3	
		X0	Y0	Z0	X1	Y1	Z1	X2	Y2	Z2	X3	Y3	Z3	X4	Y4	Z4	X5	Y5	Z5	X6	Y6	Z6	X7	Y7	Z7	X8	Y8	Z8	X9	Y9	Z9	X10	Y10	Z10	X11	Y11	Z11	X12	Y12	Z12	X13	Y13	Z13	X14	Y14	Z14	X15	Y15	Z15	X16	Y16	Z16	X17	Y17	Z17	X18	Y18	Z18	
51	0.425	135.072	37.9145	28.9836	138.817	27.8895	0.332715	133.202	22.3976	-18.9284	123.67	15.286	-39.4551	109.023	1.85919	-25.0409	102.806	0.771693	-47.0579	99.1124	-0.70611	-72.3333	91.3864	1.85489	-27.2744	87.4701	-0.76798	-50.7373	81.3254	-3.13309	-79.0106	71.7683	8.09284	-19.8875	72.4487	3.49531	-45.65	65.0928	2.75644	-65.9338	63.3591	16.358	-10.7127	58.1205	14.592	-25.6041	56.5707	7.84385	-48.3043	83.6857	13.3569	22.9418	85.2571	22.8658	48.6298	111.854	13.9788	33.7264	
52	0.433333	138.39	41.7374	30.8672	148.247	31.4461	4.22557	141.579	17.7127	-13.7286	138.391	8.12912	-32.0419	124.011	-9.11235	-17.6709	123.604	-18.7779	-38.3967	114.847	-25.7984	-61.1797	106.837	-14.9939	-19.0841	108.842	-22.5858	-39.2923	100.806	-33.1602	-63.9239	91.2635	-10.1689	-14.3849	90.488	-18.7032	-33.782	87.7825	-27.5504	-55.301	77.4757	0.680047	-3.92347	77.3076	-8.43455	-21.0343	77.6905	-17.7488	-38.2604	91.3891	8.99958	29.5763	95.4434	25.6989	52.3561	117.659	17.678	38.4323	
53	0.441667	137.907	52.2843	31.0717	153.947	44.5644	6.06165	153.711	30.2185	-11.0536	151.325	12.4581	-30.4866	143.363	-3.22695	-9.01904	142.354	-15.7764	-26.9816	140.485	-27.4655	-47.7564	131.441	-14.4991	-11.0031	132.538	-30.5691	-32.9308	131.042	-43.1311	-51.8563	110.753	-18.3941	-8.40849	114.123	-28.3737	-24.8829	121.326	-38.3678	-46.6392	93.1703	-9.97965	1.29631	95.5158	-20.6996	-13.7605	105.351	-30.3603	-28.7159	104.597	7.7773	34.3841	102.418	23.2601	52.969	130.219	23.2191	41.289	
54	0.45	129.087	59.9685	32.326	145.402	60.3929	9.58539	155.705	46.089	-10.1005	158.11	35.6778	-26.4664	159.666	10.1321	-9.78607	166.571	-0.576554	-29.0349	169.228	-10.2599	-45.3875	153.133	-4.14804	-10.0971	161.44	-16.6603	-30.5316	168.031	-26.438	-47.7152	137.507	-11.6926	-6.4345	142.294	-23.629	-21.5557	151.537	-30.2897	-39.3828	119.212	-14.5373	1.28682	126.407	-21.9882	-13.817	136.457	-31.8806	-30.5062	121.942	8.83299	32.6053	109.386	20.3331	54.4999	137.558	30.8541	41.1147	
55	0.458333	119.958	64.4696	34.3159	135.561	72.4415	11.2004	145.639	70.2189	-7.5336	153.856	56.7805	-27.0801	167.709	38.9363	-8.87041	176.391	30	-27.5176	184.819	24.202	-44.6928	166.873	19.3057	-9.40047	178.968	13.5814	-28.806	191.293	3.71305	-51.1558	153.791	3.35615	-4.36985	169.27	2.25216	-25.1679	177.786	-7.18629	-41.4541	139.704	-3.81491	2.428	150.771	-10.6684	-14.6639	163.918	-9.38007	-28.379	135.354	14.1458	33.5826	118.123	20.852	54.7633	138.601	44.7147	42.0693	
56	0.466667	110.311	66.703	36.8735	118.401	82.1144	12.9385	131.03	82.5347	-5.76334	140.159	79.1198	-25.9668	161.304	60.4819	-9.62332	170.372	61.9042	-26.6963	182.765	59.2407	-48.237	167.022	44.5044	-11.296	177.89	42.91	-30.2241	191.912	43.0963	-52.7708	161.06	28.1817	-7.46343	174.967	25.3194	-27.2718	184.054	25.126	-45.0688	152.124	14.009	-1.55581	162.801	10.4199	-17.6154	173.071	12.5262	-35.0337	139.893	23.6248	32.6981	126.734	24.0117	53.7948	134.853	50.3311	41.9644	
57	0.475	97.2934	65.1746	39.8356	100.017	85.1982	15.4793	108.973	92.8093	-6.40665	115.124	90.734	-21.7936	141.96	82.2646	-9.61456	151.971	83.8931	-30.3825	159.837	85.6612	-53.1517	154.555	65.4477	-16.0453	163.954	73.2673	-37.7374	173.195	75.3748	-58.5937	156.239	46.7206	-12.3707	165.28	53.8344	-31.764	171.451	62.3821	-52.1518	155.75	30.2765	-8.5946	159.522	37.9086	-22.9002	169.538	44.3465	-43.0084	140.374	39.5062	30.1038	132.632	31.023	48.8696	128.205	57.9608	41.19	
58	0.483333	85.264	60.3255	40.5191	73.4486	76.0131	20.5863	74.7075	87.7648	0.158502	82.8728	89.5739	-21.8424	111.548	88.5859	-13.1047	113.877	98.1226	-35.8619	117.061	101.735	-56.4377	126.87	79.8918	-19.3967	132.075	88.4354	-44.8866	133.252	99.4928	-67.5908	134.422	66.8035	-17.9584	140.6	71.7612	-41.1825	140.477	80.5152	-57.949	142.816	46.6849	-13.9084	143.956	54.3116	-30.6806	148.421	63.4428	-47.4044	132.578	47.5042	25.126	129.335	38.076	49.4706	114.162	63.4501	41.0838	
59	0.491667	72.2987	53.2848	41.9749	51.8624	66.4715	23.3229	55.0792	72.603	-0.802616	52.3227	75.5586	-19.6618	77.9219	84.2969	-17.7567	78.3418	86.4054	-39.8278	79.2631	88.7989	-63.1567	96.4565	78.5051	-29.4693	94.6254	84.5841	-50.9681	93.3513	90.7064	-71.7746	111.809	66.2678	-26.5095	110.757	71.5538	-47.4823	108.414	76.3132	-66.0304	124.127	50.2446	-18.3313	122.21	55.3146	-35.9006	118.138	63.7448	-51.8977	116.579	56.9214	16.1609	120.703	47.8346	44.754	99.2457	65.7626	37.7048	
60	0.5	57.4876	48.1637	44.2514	41.1938	52.3258	22.4533	33.1318	56.0775	-0.0460069	27.9743	55.8138	-21.8477	57.2057	66.837	-26.7848	50.0772	64.6665	-48.7468	46.8072	64.5502	-70.0608	72.0898	63.779	-32.0219	64.8405	63.4883	-53.7839	65.1992	65.3807	-83.1772	90.7323	55.2976	-35.6956	86.39	54.9406	-52.8715	82.5292	57.9672	-73.3923	108.479	44.3458	-23.1981	98.5832	48.7105	-42.0167	100.995	51.8872	-57.5051	103.604	56.8074	11.8442	109.07	54.373	38.162	82.1991	66.4225	28.7354	
61	0.508333	51.1084	47.9043	38.3519	28.6363	43.7772	22.7185	21.9128	42.3477	-2.45562	21.6368	38.4843	-20.6524	45.3788	53.7786	-26.2952	43.0714	45.1479	-50.7795	35.0538	40.3999	-68.2442	65.6358	49.1193	-36.1303	54.0788	45.4209	-58.9387	49.9939	42.066	-82.0431	78.7829	45.2909	-35.7086	75.3592	42.2649	-52.7549	72.3812	40.3677	-73.5334	96.6062	40.8185	-27.3237	94.5508	38.2713	-41.4127	87.9813	42.236	-63.9232	94.3644	54.7878	6.53472	100.576	58.3519	32.6169	69.7915	65.2493	25.3988	
62	0.516667	46.5323	49.4547	37.6648	27.8894	40.6959	19.4813	20.4889	36.0935	-6.56169	15.967	29.7752	-22.3448	44.7608	45.3945	-29.0438	41.2022	34.5922	-47.8752	31.9767	25.2193	-69.4341	60.2749	41.6354	-42.9496	51.8225	33.6151	-58.6254	49.6681	24.6562	-84.2868	79.9893	38.7032	-35.9859	70.2256	33.0133	-57.2861	68.1003	27.6891	-78.1	98.4472	36.0349	-26.6118	90.2664	32.1096	-44.5216	83.9613	31.0707	-63.3348	90.2647	56.14	7.33641	98.4936	62.5253	31.6791	67.1827	64.1555	19.8567	
63	0.525	42.0489	50.2591	34.9755	25.2717	39.5628	16.8512	17.3024	32.7366	-5.09365	13.7126	23.438	-25.3544	42.2556	42.3642	-30.5914	32.0975	30.4608	-50.2434	32.8509	15.9075	-68.6013	58.9	38.2943	-39.9982	52.09	28.3183	-56.2324	49.2491	15.2799	-83.6338	78.3755	35.92	-35.2771	73.0214	26.4761	-54.6135	68.6279	18.9479	-72.3541	95.8404	34.3915	-26.1186	87.9759	29.0368	-40.1497	86.1162	26.0433	-60.5388	86.8719	58.7952	2.78722	92.9429	64.9873	31.4719	61.255	65.7662	19.005	
64	0.533333	42.039	51.5772	39.5464	21.0543	38.9282	15.5671	14.8694	29.6065	-1.83247	14.3718	20.9861	-23.9399	34.9151	45.5285	-29.0787	28.8751	28.0856	-50.3201	28.5554	12.8794	-65.9158	52.6621	40.6174	-39.3899	51.4538	26.7243	-57.8221	44.5466	13.0637	-78.2966	74.9988	37.4	-35.5234	71.6927	24.6672	-57.9068	65.6689	16.4195	-69.7435	91.922	36.0606	-26.4744	88.8077	28.0031	-43.2356	89.1698	22.9889	-60.0415	85.08	60.2883	2.36972	90.463	68.7324	29.841	61.1564	68.7045	20.3753	
65	0.541667	39.5912	51.4401	37.8514	25.516	36.3445	17.6407	16.7274	27.8771	-1.81236	16.009	17.8245	-20.4327	35.2609	47.5911	-28.6665	33.0001	29.5506	-49.477	28.0078	14.6528	-62.5113	56.8038	43.3928	-43.0076	51.6553	30.5297	-58.3272	45.0491	14.0071	-76.3164	72.3082	40.4971	-37.4748	68.5153	28.2566	-55.303	63.28	14.3876	-71.603	92.1343	38.2829	-28.2652	91.8951	27.7237	-45.376	88.5346	22.1232	-59.3335	84.3958	63.6124	6.11953	87.607	69.6873	32.6358	61.1753	72.2824	17.9832	
66	0.55	39.2322	50.9492	38.1301	25.9302	34.9874	19.4421	16.6855	26.7757	-4.29985	18.3762	17.5507	-21.7232	36.6435	48.296	-30.8885	29.0032	36.0267	-47.3582	24.7961	14.4251	-64.6228	56.9331	48.8797	-38.6064	52.1881	34.96	-59.9047	48.3584	13.7133	-79.613	75.7552	43.5815	-39.4152	71.4746	29.7559	-58.351	65.3072	16.417	-70.1391	94.6911	40.9962	-27.0023	92.9613	32.4933	-40.6673	93.6498	20.4561	-60.1699	86.3834	65.0566	3.56815	89.5923	68.7379	31.1583	61.6068	71.3659	22.8923	
67	0.558333	39.4409	49.43	39.6917	26.5797	34.2789	18.5044	21.9767	27.3844	-4.9864	17.8929	17.426	-21.7791	38.1382	52.3481	-29.7715	29.648	38.8924	-48.8615	28.1496	20.2278	-65.3333	54.9452	51.4021	-40.782	54.5696	39.9302	-60.2168	51.1144	20.2987	-78.6547	79.0786	47.9013	-33.7264	73.1338	35.2704	-54.616	67.6131	17.7688	-68.9996	98.6988	41.7295	-25.1785	92.665	32.1416	-45.4093	93.51	22.2422	-59.1169	86.2445	64.8985	9.55553	93.2889	68.6573	35.8505	59.7405	71.4853	23.1838	
68	0.566667	41.8339	45.7201	40.5859	29.3241	32.7281	20.5956	17.9308	24.842	-3.01731	17.5736	17.8438	-22.7146	40.2448	55.1833	-25.8353	34.8414	45.1764	-48.1614	26.4175	26.6517	-64.3388	60.2029	54.7335	-40.7002	56.3292	43.0965	-59.6167	51.8249	22.6548	-78.9978	81.1525	48.8807	-34.577	72.9583	36.7028	-53.9366	65.4666	17.35	-70.049	97.8235	42.7035	-25.5633	93.8215	35.0252	-40.0737	89.9176	21.4051	-60.5747	85.6173	64.3027	12.3723	92.3888	65.8363	35.0473	65.4939	69.086	24.6907	
69	0.575	46.8308	43.382	37.4129	31.1501	30.4608	20.4857	21.482	24.7005	-4.87984	20.0821	16.7461	-20.7464	36.716	53.818	-27.4859	31.9361	43.437	-47.3838	26.7914	25.8203	-63.2533	58.6561	54.9001	-36.5775	52.8699	43.2393	-58.6786	53.6734	20.0771	-77.5412	80.7246	49.0024	-31.9501	72.6504	37.0262	-52.2053	70.3377	16.1335	-68.5193	96.0982	42.4775	-26.6796	98.7703	33.1188	-40.8436	93.0028	20.7845	-57.0594	89.2641	62.3992	10.2996	90.6325	62.8542	40.3425	63.9889	64.6317	31.201	
70	0.583333	49.0936	41.1016	40.9676	32.5516	29.4527	18.8404	20.5071	23.839	-2.73463	20.6033	17.634	-23.2727	40.8439	53.3856	-28.2707	32.2185	41.948	-46.3705	25.7314	19.3291	-61.9919	63.0134	54.6721	-35.2584	52.2524	43.9062	-55.6317	52.7582	20.6788	-73.7408	78.9775	48.9193	-30.9607	73.0021	38.0662	-52.176	65.4294	18.7687	-66.1768	97.4563	43.3631	-26.6586	96.2651	31.9798	-44.3114	89.5424	23.5016	-56.9543	90.6987	60.0468	10.4654	93.5004	60.6035	36.6165	67.3042	66.3244	29.7011	
71	0.591667	49.6623	42.5468	40.4979	30.2732	30.8036	22.018	26.7996	26.4925	-3.82335	22.8491	19.3131	-25.7429	41.3779	55.9751	-24.3397	36.6027	41.2936	-46.51	28.2175	22.7739	-57.1987	59.6021	55.1601	-35.759	53.8564	44.2443	-55.2362	48.3993	17.0877	-72.357	80.8335	49.3824	-32.0414	78.2632	36.7248	-51.4536	66.5686	16.4589	-66.4634	101.058	42.7379	-22.553	95.9377	35.8212	-40.6183	90.8676	23.3587	-54.5156	94.0654	62.4314	15.0456	96.3559	59.8788	43.2617	69.6575	63.5233	34.3811	
72	0.6	51.6799	43.3246	43.9267	32.5499	32.7038	18.9602	27.5586	28.0221	-3.78262	25.9599	20.6552	-24.2569	45.7903	57.8415	-22.203	37.3119	41.732	-46.7008	33.1227	19.9906	-57.6952	63.2008	55.6689	-34.3312	58.6298	42.0078	-56.7382	51.2276	19.7915	-69.6908	82.405	51.0526	-29.43	74.2233	36.7336	-51.6373	70.8717	16.4721	-64.68	100.778	44.6083	-20.9079	95.6897	33.2808	-42.4227	92.9104	19.8939	-58.1832	94.6188	63.1978	15.6203	98.745	61.9386	38.2002	67.8263	66.4594	30.6655	
73	0.608333	50.9665	45.3401	40.1229	30.1908	32.4114	21.5187	28.3868	27.6568	-2.14772	25.7995	22.2	-22.3896	44.3164	58.3257	-23.4672	34.2524	43.8425	-43.6562	31.9574	23.5664	-56.4345	62.9832	56.8855	-33.6235	58.9694	44.1184	-53.7169	52.7648	19.8898	-69.3459	82.1301	51.7357	-28.7258	78.9015	36.8879	-52.8392	71.0054	17.4049	-64.0196	103.007	44.3393	-21.4077	101.11	33.4911	-41.4115	93.5489	20.7686	-58.9556	92.0156	62.6907	13.9048	97.6859	61.7078	41.7673	69.3313	66.204	33.8285	
